<svg id="_x33_0" enable-background="new 0 0 64 64" height="512" viewBox="0 0 64 64" width="512" xmlns="http://www.w3.org/2000/svg"><g><g><g><path d="m25.61 11.84c-.82.11-1.66.16-2.5.16h-1.11v4h-1c-.54 0-1.05.15-1.49.39l-2.76-3.46-.28-.4c-.31-.52-.47-1.11-.47-1.73 0-.52.12-1.05.36-1.52l2.01-4.03c.5-.99 1.26-1.81 2.17-2.37.92-.56 1.98-.88 3.09-.88.25 0 .49.02.73.05l7.64.95v7l-1.39.55c-1.6.65-3.28 1.08-5 1.29z" fill="#fcd770"/></g><g><path d="m18 19c0 .28.04.54.55 1.73l-2.55-1.53-.51-.31c-.93-.55-1.49-1.55-1.49-2.62 0-.81.32-1.59.9-2.17l1.57-1.57.28.4 2.76 3.46c-.9.52-1.51 1.49-1.51 2.61z" fill="#fcd770"/></g><g><path d="m18.88 21.12c.54.54 1.29.88 2.12.88h1v1c0 1.75.63 3.33 1.69 4.56l-4.95-1.65c-1.64-.54-2.74-2.07-2.74-3.79v-2.92l2.55 1.53c.1.14.21.27.33.39z" fill="#fcd770"/></g><g><path d="m29 30c-1.08 0-2.09-.24-3-.68v.01 4.65c0 1.79-1.18 3.36-2.9 3.85l-.95.27c-6.01 1.72-10.15 7.21-10.15 13.46v10.44h11 9v-9-8-7-4-4z" fill="#f0d0b4"/></g><g><path d="m22 16v6h-1c-.83 0-1.58-.34-2.12-.88-.12-.12-.23-.25-.33-.39-.51-1.19-.55-1.45-.55-1.73 0-1.12.61-2.09 1.51-2.61.44-.24.95-.39 1.49-.39z" fill="#f0d0b4"/></g><g><path d="m32 26v4h-3c-1.08 0-2.09-.24-3-.68-.89-.42-1.68-1.02-2.31-1.76-1.06-1.23-1.69-2.81-1.69-4.56v-1-6-4h1.11c.84 0 1.68-.05 2.5-.16 1.72-.21 3.4-.64 5-1.29l1.39-.55v12z" fill="#f0d0b4"/></g><g><path d="m58.79 60.84.21 1.16h-4c-.62-2.81-1.52-5.53-2.68-8.13l3.96-1.58c1.14 2.75 1.98 5.61 2.51 8.55z" fill="#e6e9ed"/></g><g><path d="m52.32 53.87c-1.24-2.79-2.78-5.43-4.59-7.9.27-.05.51-.15.73-.32l2.58-1.93c.11-.08.21-.17.29-.27l.01.01c2 2.74 3.66 5.71 4.94 8.83z" fill="#e6e9ed"/></g><g><path d="m46 57v.5c0 2.49-2.01 4.5-4.5 4.5-.97 0-1.92-.32-2.7-.9l-2.8-2.1v-3.44c0-.69-.35-1.32-.91-1.68z" fill="#e6e9ed"/></g><g><path d="m46 46v4h-10v-2.44c0-.62-.28-1.19-.75-1.56z" fill="#e6e9ed"/></g><g><path d="m38 38h5l-.78 1.56c-.14.29-.22.61-.22.93 0 .58.24 1.12.64 1.51h-6.64v-4z" fill="#e6e9ed"/></g><g><path d="m34.49 52.38c.89-.22 1.51-1.02 1.51-1.94v-.44h10v7l-10.91-3.12c-.18-.12-.38-.21-.6-.26l-2.49-.62z" fill="#e6e9ed"/></g><g><path d="m45 44.26c0 .7.41 1.3 1 1.57v.17h-10.75c-.21-.18-.47-.31-.76-.38l-2.49-.62 2.49-.62c.89-.22 1.51-1.02 1.51-1.94v-.44h6.64c.22.21.49.38.79.48l.38.12c.71.24 1.19.91 1.19 1.65z" fill="#e6e9ed"/></g><g><path d="m36 59v3h-4v-9l2.49.62c.22.05.42.14.6.26.56.36.91.99.91 1.68z" fill="#ccd1d9"/></g><g><path d="m36 50v.44c0 .92-.62 1.72-1.51 1.94l-2.49.62v-8l2.49.62c.29.07.55.2.76.38.47.37.75.94.75 1.56z" fill="#ccd1d9"/></g><g><path d="m36 42v.44c0 .92-.62 1.72-1.51 1.94l-2.49.62v-7h4z" fill="#ccd1d9"/></g><g><path d="m50.2 38.6 1.32 1.76c.31.42.48.92.48 1.44 0 .62-.24 1.21-.67 1.65-.08.1-.18.19-.29.27l-2.58 1.93c-.22.17-.46.27-.73.32-.1.02-.2.03-.31.03h-.68c-.26 0-.52-.06-.74-.17-.59-.27-1-.87-1-1.57v-.01c0-.74-.48-1.41-1.19-1.65l-.38-.12c-.3-.1-.57-.27-.79-.48-.4-.39-.64-.93-.64-1.51 0-.32.08-.64.22-.93l.78-1.56.29-.58c.44-.87 1.32-1.42 2.29-1.42.28 0 .55.04.81.13l1.99.66c.4.14.76.39 1.01.73z" fill="#ccd1d9"/></g><g><path d="m32 30h6v8h-6z" fill="#e6e9ed"/></g><g><path d="m43.14 4.86c-1.76-1.77-4.2-2.86-6.9-2.86-1.47 0-2.92.34-4.24 1v27h6 1c2.76 0 5-2.24 5-5v-6.9-.01c.13-.06.27-.09.41-.09h.59c.55 0 1-.45 1-1v-5.24c0-2.7-1.09-5.14-2.86-6.9z" fill="#e6e9ed"/></g><g><path d="m36 22h-4v4h4 3c.55 0 1-.45 1-1v-3z" fill="#aab2bd"/></g><g><circle cx="38" cy="16" fill="#838f9b" r="2"/></g></g><g><path d="m41 16c0-1.654-1.346-3-3-3s-3 1.346-3 3 1.346 3 3 3 3-1.346 3-3zm-3 1c-.552 0-1-.448-1-1s.448-1 1-1 1 .448 1 1-.448 1-1 1z"/><circle cx="26" cy="16" r="1"/><circle cx="26" cy="50" r="1"/><path d="m59.772 60.66c-1.119-6.157-3.62-12.084-7.223-17.203.283-.503.451-1.069.451-1.657 0-.732-.242-1.457-.681-2.039l-2.128-2.838c-.38-.507-.896-.88-1.496-1.078l-1.982-.661c-.363-.122-.743-.184-1.129-.184-1.358 0-2.58.755-3.187 1.97l-.015.03h-3.382v-6c3.309 0 6-2.691 6-6v-6c1.103 0 2-.897 2-2v-5.236c0-5.936-4.828-10.764-10.764-10.764-1.506 0-3.008.344-4.378.975l-7.375-.923c-.282-.034-.565-.052-.849-.052-2.623 0-4.98 1.457-6.153 3.803l-2.016 4.031c-.304.609-.465 1.29-.465 1.971 0 .517.096 1.027.272 1.509l-1.083 1.083c-.766.766-1.189 1.786-1.189 2.871 0 1.417.755 2.751 1.971 3.481l.029.018v2.351c0 2.155 1.374 4.062 3.419 4.743l4.729 1.576c.54.58 1.162 1.08 1.852 1.481v4.065c0 1.332-.895 2.519-2.176 2.885l-.944.27c-6.406 1.83-10.88 7.76-10.88 14.423v11.439h26v-2l1.199.9c.947.709 2.118 1.1 3.301 1.1 3.032 0 5.5-2.468 5.5-5.5v-10.5h.224c3.282 4.589 5.574 9.702 6.8 15.217l.174.783h6zm-24.191-7.677c.707-.439 1.205-1.155 1.363-1.983h8.056v4.674zm6.706-9.983c.248.179.524.325.826.426l.382.127c.302.1.505.382.505.707 0 .258.047.503.115.74h-8.565c.723-.437 1.234-1.16 1.394-2zm2.713 6h-8v-1.438c0-.192-.022-.379-.057-.562h8.057zm-12-2.72 1.242.311c.446.112.758.511.758.971v2.877c0 .46-.312.858-.757.971l-1.243.31zm2-3.842c0 .46-.312.858-.757.971l-1.243.311v-4.72h2zm16.122 2.47c1.484 2.15 2.769 4.44 3.824 6.836l-2.118.847c-1.025-2.17-2.239-4.252-3.623-6.245zm-6.935-7.044c.266-.533.801-.864 1.397-.864.169 0 .335.026.494.08l1.986.662.002.001c.21.069.392.201.525.379l.209.278-2.4 1.8 1.199 1.6 2.4-1.8.721.962c.183.242.28.532.28.838 0 .438-.209.857-.561 1.12l-2.575 1.933c-.127.094-.285.147-.444.147h-.68c-.408 0-.74-.332-.74-.746 0-1.182-.753-2.227-1.874-2.6l-.381-.126c-.445-.149-.745-.565-.745-1.035 0-.169.04-.337.115-.487zm-2.86 1.246c-.214.426-.327.905-.327 1.383 0 .172.015.341.043.507h-4.043v-2h4.382zm-8.327-2.11v-2h4v2zm4-4h-4v-2h4zm2-4h-6v-2h6c1.103 0 2-.897 2-2v-2.586l2-2v4.586c0 2.206-1.794 4-4 4zm0-6v2h-2v-2zm-6-19.357c1.023-.422 2.131-.643 3.236-.643 4.832 0 8.764 3.932 8.764 8.764v5.236h-.586c-.526 0-1.042.214-1.414.586l-3.414 3.414h-6.586zm2 19.357v2h-2v-2zm-17.746-13.272 2.016-4.03c.832-1.665 2.503-2.698 4.364-2.698.204 0 .407.014.605.037l6.761.846v5.44l-.756.302c-.677.271-1.367.489-2.063.68.528-1.003.819-2.128.819-3.305h-2c0 1.51-.656 2.904-1.797 3.875-.694.076-1.392.125-2.097.125h-1.106c-.552 0-1-.448-1-1s.448-1 1-1h1v-2h-1c-1.654 0-3 1.346-3 3 0 1.302.839 2.402 2 2.816v2.184c-.408 0-.793.079-1.164.193l-2.308-2.884c-.34-.426-.528-.96-.528-1.504 0-.372.088-.745.254-1.077zm1.746 9.272c0-1.103.897-2 2-2v4c-1.103 0-2-.897-2-2zm-3.396-4.189.758-.758 1.753 2.191c-.611.639-.998 1.48-1.079 2.411l-1.036-.621c-.617-.37-1-1.048-1-1.767 0-.55.215-1.067.604-1.456zm3.448 10.153c-1.228-.41-2.052-1.554-2.052-2.847v-1.151l.915.549c.734.899 1.837 1.485 3.085 1.485 0 .98.186 1.915.509 2.783zm3.948-1.964v-10h.106c2.71 0 5.361-.511 7.88-1.518l.014-.005v13.523h-2c-1.103 0-2-.897-2-2h-2c0 2.206 1.794 4 4 4h2v2h-2c-3.309 0-6-2.691-6-6zm-10 28.561c0-5.773 3.877-10.914 9.429-12.5l.945-.27c2.135-.611 3.626-2.588 3.626-4.809v-3.246c.641.167 1.308.264 2 .264h2v21.342c-1.025.424-2.129.658-3.236.658h-3.764c-1.654 0-3-1.346-3-3v-7h-2v7c0 1.679.838 3.159 2.112 4.067l.77 6.933h-8.882zm18 2.91v6.529h-7.105l-.676-6.079c.257.041.514.079.781.079h3.764c1.097 0 2.191-.189 3.236-.529zm4 6.529h-2v-6.72l1.242.311c.446.112.758.511.758.971zm6.5 0c-.753 0-1.498-.249-2.101-.7l-2.399-1.8v-2.939c0-.032-.007-.063-.008-.095l7.983 2.281c-.13 1.813-1.63 3.253-3.475 3.253zm14.295 0c-.546-2.262-1.271-4.456-2.157-6.579l2.066-.826c.923 2.401 1.638 4.881 2.098 7.405z"/></g></g></svg>