<?xml version="1.0" encoding="iso-8859-1"?>
<!-- Generator: Adobe Illustrator 19.0.0, SVG Export Plug-In . SVG Version: 6.00 Build 0)  -->
<svg version="1.1" id="Capa_1" xmlns="http://www.w3.org/2000/svg" xmlns:xlink="http://www.w3.org/1999/xlink" x="0px" y="0px"
	 viewBox="0 0 512 512" style="enable-background:new 0 0 512 512;" xml:space="preserve">
<path style="fill:#BCDAFF;" d="M256,384.927c12.318-12.318,19.225-19.225,31.543-31.543H504.5V32.97H287.548
	C275.228,45.29,268.32,52.198,256,64.518V384.927z"/>
<g>
	<rect x="424.31" y="298.829" style="fill:#57A3FF;" width="26.686" height="26.686"/>
	<rect x="474.32" y="298.829" style="fill:#57A3FF;" width="26.686" height="26.686"/>
</g>
<path style="fill:#BCDAFF;" d="M224.452,32.97H7.5v320.413h97.743v-26.461h44.375v26.461h74.834
	c12.32,12.321,19.229,19.231,31.548,31.552V64.518C243.68,52.198,236.772,45.29,224.452,32.97z"/>
<g>
	<circle style="fill:#57A3FF;" cx="157.43" cy="199.47" r="91.64"/>
	<rect x="143.09" y="291.1" style="fill:#57A3FF;" width="28.673" height="35.823"/>
</g>
<g>
	<rect x="394.31" y="298.829" style="fill:#FF4655;" width="26.686" height="26.686"/>
	<rect x="444.32" y="298.829" style="fill:#FF4655;" width="26.686" height="26.686"/>
	<polygon style="fill:#FF4655;" points="478.833,473.96 447.333,456.96 415.833,473.96 415.833,375.368 478.833,375.368 	"/>
</g>
<path style="fill:#57A3FF;" d="M287.543,353.383c-12.318,12.319-19.225,19.225-31.543,31.543v12.222h159.833v-21.781h63v21.781
	H504.5v-43.765H287.543z"/>
<circle style="fill:#FF4655;" cx="127.43" cy="199.47" r="91.64"/>
<path style="fill:#D73532;" d="M210.581,160.92c-11.936-16.43-31.289-27.122-53.15-27.122c-36.267,0-65.667,29.4-65.667,65.667
	s29.4,65.667,65.667,65.667c21.861,0,41.215-10.692,53.15-27.122c5.441-11.718,8.484-24.775,8.484-38.545
	S216.022,172.638,210.581,160.92z"/>
<circle style="fill:#A1FFF6;" cx="127.43" cy="199.47" r="65.67"/>
<path style="fill:#57A3FF;" d="M137.584,472.158h-20.306c-4.7-4.7-7.335-7.335-12.034-12.034V326.922h44.375v133.201
	C144.918,464.823,142.284,467.458,137.584,472.158z"/>
<rect x="113.09" y="291.1" style="fill:#FF4655;" width="28.673" height="35.823"/>
<g>
	<rect x="7.5" y="353.38" style="fill:#57A3FF;" width="97.74" height="43.765"/>
	<path style="fill:#57A3FF;" d="M224.457,353.383h-74.838v43.765H256v-12.222C243.682,372.608,236.775,365.702,224.457,353.383z"/>
</g>
<g>
	<rect x="149.62" y="397.15" style="fill:#FFE377;" width="266.21" height="28.571"/>
	<rect x="7.5" y="397.15" style="fill:#FFE377;" width="97.74" height="28.571"/>
	<rect x="478.83" y="397.15" style="fill:#FFE377;" width="25.667" height="28.571"/>
</g>
<g>
	<rect x="394.31" y="298.829" style="fill:#D73532;" width="26.686" height="26.686"/>
	<rect x="444.32" y="298.829" style="fill:#D73532;" width="26.686" height="26.686"/>
	<rect x="113.09" y="291.1" style="fill:#D73532;" width="28.673" height="35.823"/>
</g>
<g>
	<polygon style="fill:#57A3FF;" points="286,64.518 317.548,32.97 287.548,32.97 256,64.518 256,384.927 286,354.927 	"/>
	<rect x="149.62" y="326.92" style="fill:#57A3FF;" width="30" height="26.461"/>
	<rect x="7.5" y="32.97" style="fill:#57A3FF;" width="30" height="320.41"/>
	<path style="fill:#57A3FF;" d="M254.452,353.383h-30c12.32,12.321,19.229,19.231,31.548,31.552v-30.003
		C255.489,354.42,254.982,353.913,254.452,353.383z"/>
</g>
<polygon style="fill:#D73532;" points="445.833,375.368 415.833,375.368 415.833,473.96 445.833,457.769 "/>
<g>
	<path style="fill:#006DEF;" d="M317.543,353.383h-30c-12.318,12.319-19.225,19.225-31.543,31.543v12.222h30v-12.222
		C298.318,372.608,305.225,365.702,317.543,353.383z"/>
	<rect x="478.83" y="375.37" style="fill:#006DEF;" width="25.667" height="21.781"/>
</g>
<path style="fill:#D73532;" d="M65.796,199.465c0-45.499,33.163-83.246,76.635-90.406c-4.882-0.804-9.891-1.229-15-1.229
	c-50.608,0-91.635,41.026-91.635,91.635S76.822,291.1,127.431,291.1c5.109,0,10.118-0.425,15-1.229
	C98.959,282.711,65.796,244.964,65.796,199.465z"/>
<path style="fill:#00FFF6;" d="M91.764,199.465c0-31.104,21.632-57.137,50.667-63.925c-4.82-1.127-9.837-1.742-15-1.742
	c-36.267,0-65.667,29.4-65.667,65.667s29.4,65.667,65.667,65.667c5.163,0,10.18-0.615,15-1.742
	C113.396,256.602,91.764,230.568,91.764,199.465z"/>
<g>
	<path style="fill:#006DEF;" d="M125.243,326.922h-20v133.201c4.7,4.7,7.335,7.335,12.034,12.034h20
		c-4.7-4.7-7.335-7.335-12.034-12.034V326.922z"/>
	<rect x="149.62" y="353.38" style="fill:#006DEF;" width="30" height="43.765"/>
	<rect x="7.5" y="353.38" style="fill:#006DEF;" width="30" height="43.765"/>
</g>
<g>
	<rect x="7.5" y="397.15" style="fill:#FFD322;" width="30" height="28.571"/>
	<rect x="478.83" y="397.15" style="fill:#FFD322;" width="25.667" height="28.571"/>
	<rect x="149.62" y="397.15" style="fill:#FFD322;" width="30" height="28.571"/>
</g>
<g>
	<path style="fill:#1D1D1F;" d="M428.5,333.016v-41.687h-41.686v41.687H428.5z M401.814,306.329H413.5v11.687h-11.686V306.329z"/>
	<path style="fill:#1D1D1F;" d="M478.509,333.016v-41.687h-41.687v41.687H478.509z M451.822,306.329h11.687v11.687h-11.687V306.329z
		"/>
	<path style="fill:#1D1D1F;" d="M512,99.979V25.47H284.442L256,53.912L227.558,25.47H0v290.548h15V40.47h206.345L248.5,67.625
		V366.82l-16.548-16.549v-61.806h-15v57.418h-59.833v-26.461h-7.854v-14.726h43.833v-15h-24.623
		c10.79-4.927,20.548-11.734,28.853-20h17.006v-15h-4.618c10.636-15.794,16.85-34.8,16.85-55.231c0-27.182-11-51.842-28.778-69.769
		h16.546v-15h-35.547c-14.987-9.114-32.57-14.366-51.356-14.366s-36.368,5.253-51.355,14.366h-41.58v15h22.579
		c-17.778,17.927-28.778,42.586-28.778,69.769c0,20.431,6.214,39.438,16.85,55.231H38v15h19.534
		c8.305,8.266,18.064,15.073,28.853,20H38v15h67.591v14.726h-7.848v26.461H15v-14.865H0V433.22h97.743v30.01l16.428,16.429h26.52
		l16.427-16.429v-30.01h251.215v53.311l39-21.048l39,21.048V433.22H512V114.979h-15v230.904H284.437L263.5,366.82V67.625
		l27.155-27.155H497v59.509C497,99.979,512,99.979,512,99.979z M221.345,360.883L248.5,388.04v1.608h-91.382v-6.78h46.891v-15
		h-46.891v-6.985h64.227V360.883z M43.296,199.465c0-46.392,37.743-84.135,84.134-84.135c46.392,0,84.135,37.743,84.135,84.135
		S173.823,283.6,127.431,283.6S43.296,245.856,43.296,199.465z M120.591,298.6h13.673v20.822h-13.673V298.6z M15,360.883h82.743
		v6.985H74.5v15h23.243v6.78H15V360.883z M15,418.22v-13.571h82.743v13.571H15z M142.118,457.017l-7.641,7.642h-14.092l-7.642-7.642
		V334.422h29.375L142.118,457.017L142.118,457.017z M408.333,418.22H157.118v-13.571h251.215V418.22z M471.333,461.39l-24-12.952
		l-24,12.952v-78.521H447v42.852h15v-42.852h9.333v50.352l0,0V461.39z M497,418.22h-10.667v-13.571H497V418.22z M486.333,389.648
		v-6.78H497v6.78H486.333z M497,360.883v6.985H320v15h88.333v6.78H263.5v-1.615l27.15-27.15H497z"/>
	<rect x="24.5" y="367.87" style="fill:#1D1D1F;" width="15" height="15"/>
	<rect x="49.5" y="367.87" style="fill:#1D1D1F;" width="15" height="15"/>
</g>
<g>
	<rect x="274.5" y="68.33" style="fill:#FFFFFF;" width="15" height="15"/>
	<rect x="274.5" y="93.33" style="fill:#FFFFFF;" width="15" height="15"/>
	<rect x="274.5" y="118.33" style="fill:#FFFFFF;" width="15" height="151.35"/>
	<rect x="109.43" y="65.27" style="fill:#FFFFFF;" width="86" height="15"/>
	<rect x="59.43" y="65.27" style="fill:#FFFFFF;" width="15" height="15"/>
	<rect x="84.43" y="65.27" style="fill:#FFFFFF;" width="15" height="15"/>
</g>
<g>
	<rect x="342" y="114.7" style="fill:#1D1D1F;" width="137.01" height="15"/>
	<rect x="313" y="149.7" style="fill:#1D1D1F;" width="166.01" height="15"/>
	<rect x="313" y="79.7" style="fill:#1D1D1F;" width="166.01" height="15"/>
	<rect x="313" y="184.7" style="fill:#1D1D1F;" width="134.33" height="15"/>
	<rect x="342" y="219.7" style="fill:#1D1D1F;" width="137.01" height="15"/>
	<rect x="313" y="254.7" style="fill:#1D1D1F;" width="166.01" height="15"/>
	<path style="fill:#1D1D1F;" d="M200.597,199.465c0-40.345-32.822-73.167-73.167-73.167s-73.167,32.822-73.167,73.167
		s32.822,73.167,73.167,73.167S200.597,239.81,200.597,199.465z M69.264,199.465c0-32.073,26.093-58.167,58.167-58.167
		s58.167,26.094,58.167,58.167s-26.093,58.167-58.167,58.167S69.264,231.538,69.264,199.465z"/>
	<path style="fill:#1D1D1F;" d="M142.118,206.965v26.076h15V171.59l-13.201-13.201h-32.973L97.743,171.59v61.451h15v-26.076H142.118
		z M117.157,173.389h20.547l4.414,4.414v14.162h-29.375v-14.162L117.157,173.389z"/>
	<rect x="119.93" y="372.46" style="fill:#1D1D1F;" width="15" height="15"/>
	<rect x="119.93" y="397.46" style="fill:#1D1D1F;" width="15" height="49.52"/>
	<rect x="119.93" y="347.46" style="fill:#1D1D1F;" width="15" height="15"/>
</g>
<g>
</g>
<g>
</g>
<g>
</g>
<g>
</g>
<g>
</g>
<g>
</g>
<g>
</g>
<g>
</g>
<g>
</g>
<g>
</g>
<g>
</g>
<g>
</g>
<g>
</g>
<g>
</g>
<g>
</g>
</svg>
