<svg id="_x33_0" enable-background="new 0 0 64 64" height="512" viewBox="0 0 64 64" width="512" xmlns="http://www.w3.org/2000/svg"><g><g><g><path d="m61.11 48.55c.54.28.89.84.89 1.45s-.35 1.17-.89 1.45l-9.11 4.55v-6-6z" fill="#aab2bd"/></g><g><path d="m52 50v6h-27.16l-.01.01-.09-.09c-.65-.65-.78-1.62-.43-2.46.01-.02.01-.03.02-.04.34-.84 1.12-1.42 2.03-1.42h1.64v-2z" fill="#e6e9ed"/></g><g><path d="m58 2 4 6h-4-4z" fill="#ff826e"/></g><g><path d="m52 44v6h-24v-2h-1.64c-.91 0-1.69-.58-2.03-1.42-.01-.01-.01-.02-.02-.04-.35-.84-.22-1.81.43-2.46l.1-.08h5.16z" fill="#b4dd7f"/></g><g><path d="m48 13 4 6h-4-4z" fill="#ff826e"/></g><g><path d="m38 24 4 6h-4-4z" fill="#ff826e"/></g><g><path d="m30 34.74v9.26h-5.16l1.16-1-2.93-2.9-1.15 1.16c-.65.65-1.62.78-2.46.43-.02-.01-.03-.01-.04-.02-.84-.34-1.42-1.12-1.42-2.03v-1.64l2.8-6.16 1.95-4.29 1.62.32c3.27.66 5.63 3.53 5.63 6.87z" fill="#e6e9ed"/></g><g><path d="m28 50v2h-1.64c-.91 0-1.69.58-2.03 1.42-.01.01-.01.02-.02.04-.35.84-.22 1.81.43 2.46l.09.09 1.07 1.06-2.83 2.83-1.15-1.16c-.65-.65-1.62-.78-2.46-.43-.02.01-.03.01-.04.02-.84.34-1.42 1.12-1.42 2.03v1.64h-4v-1.64c0-.91-.58-1.69-1.42-2.03-.01-.01-.02-.01-.04-.02-.84-.35-1.81-.22-2.46.43l-1.15 1.16-2.83-2.83 1.16-1.15c.65-.65.78-1.62.43-2.46-.01-.02-.01-.03-.02-.04-.34-.84-1.12-1.42-2.03-1.42h-1.64v-4h1.64c.91 0 1.69-.58 2.03-1.42.01-.01.01-.02.02-.04.35-.84.22-1.81-.43-2.46l-.19-.16-1.07-.92 2.93-2.9 1.15 1.16c.65.65 1.62.78 2.46.43.02-.01.03-.01.04-.02.84-.34 1.42-1.12 1.42-2.03v-1.64h4v1.64c0 .91.58 1.69 1.42 2.03.01.01.02.01.04.02.84.35 1.81.22 2.46-.43l1.15-1.16 2.93 2.9-1.16 1-.1.08c-.65.65-.78 1.62-.43 2.46.01.02.01.03.02.04.34.84 1.12 1.42 2.03 1.42h1.64zm-6 0c0-3.31-2.69-6-6-6s-6 2.69-6 6 2.69 6 6 6 6-2.69 6-6z" fill="#ffc729"/></g><g><path d="m14 9-.97.24c-1.74.44-2.97 1.98-3.03 3.76h-1c-.77 0-1.46.29-1.99.77l-.01-.01s-.25-.69-.5-1.63c-.25-.93-.5-2.13-.5-3.13 0-1.76 1.2-3.3 2.91-3.73l1.09-.27c1.25-1.87 3.35-3 5.61-3h2.65c2.14 0 4.07.87 5.47 2.27s2.27 3.33 2.27 5.47c0 .84-.13 1.66-.4 2.45l-.54 1.63c-.53-.5-1.26-.82-2.06-.82h-1c0-1.1-.9-2-2-2h-4c-.55 0-1.05-.22-1.41-.59-.37-.36-.59-.86-.59-1.41z" fill="#b27946"/></g><g><path d="m25.06 13.82c.58.55.94 1.32.94 2.18 0 .83-.34 1.58-.88 2.12s-1.29.88-2.12.88h-1.34c.22-.63.34-1.3.34-2v-4h1c.8 0 1.53.32 2.06.82z" fill="#f0d0b4"/></g><g><path d="m22.75 27.55-1.95 4.29-2.96-2.37-1.84-1.47 3.99-1.99c.43.7 1.13 1.21 1.97 1.38z" fill="#fc6e51"/></g><g><path d="m22 13v4c0 .7-.12 1.37-.34 2-.48 1.34-1.42 2.47-2.63 3.17-.89.53-1.92.83-3.03.83s-2.14-.3-3.03-.83c-.45-.25-.85-.57-1.21-.93-.63-.62-1.12-1.39-1.42-2.24-.22-.63-.34-1.3-.34-2v-3.88c0-.04 0-.08 0-.12.06-1.78 1.29-3.32 3.03-3.76l.97-.24c0 .55.22 1.05.59 1.41.36.37.86.59 1.41.59h4c1.1 0 2 .9 2 2z" fill="#f0d0b4"/></g><g><path d="m20.8 31.84-2.8 6.16-1-6 .84-2.53z" fill="#ff826e"/></g><g><path d="m16 44c3.31 0 6 2.69 6 6s-2.69 6-6 6-6-2.69-6-6 2.69-6 6-6zm2 6c0-1.1-.9-2-2-2s-2 .9-2 2 .9 2 2 2 2-.9 2-2z" fill="#fcd770"/></g><g><path d="m19.99 26.01-3.99 1.99-3.99-1.99c.18-.29.31-.62.38-.97l.57-2.86.01-.01c.89.53 1.92.83 3.03.83s2.14-.3 3.03-.83l.01.01.57 2.86c.07.35.2.68.38.97z" fill="#f0d0b4"/></g><g><path d="m17 32 1 6h-4l1-6z" fill="#b4dd7f"/></g><g><path d="m17.84 29.47-.84 2.53h-2l-.84-2.53 1.84-1.47z" fill="#a0d468"/></g><g><path d="m16 28-1.84 1.47-2.96 2.37-1.95-4.29.79-.16c.84-.17 1.54-.68 1.97-1.38z" fill="#fc6e51"/></g><g><path d="m14.16 29.47.84 2.53-1 6-2.8-6.16z" fill="#ff826e"/></g><g><path d="m14 38v1.64c0 .91-.58 1.69-1.42 2.03-.01.01-.02.01-.04.02-.84.35-1.81.22-2.46-.43l-1.15-1.16-2.93 2.9 1.07.92-.07.08h-5v-9.26c0-3.34 2.36-6.21 5.63-6.87l1.62-.32 1.95 4.29z" fill="#e6e9ed"/></g><g><path d="m10.34 19h-1.34c-.83 0-1.58-.34-2.12-.88s-.88-1.29-.88-2.12c0-.89.39-1.7 1.01-2.23.53-.48 1.22-.77 1.99-.77h1v.12 3.88c0 .7.12 1.37.34 2z" fill="#f0d0b4"/></g></g><g><path d="m16 47c-1.654 0-3 1.346-3 3s1.346 3 3 3 3-1.346 3-3-1.346-3-3-3zm0 4c-.552 0-1-.449-1-1s.448-1 1-1 1 .449 1 1-.448 1-1 1z"/><path d="m16 43c-3.859 0-7 3.14-7 7s3.141 7 7 7 7-3.14 7-7-3.141-7-7-7zm0 12c-2.757 0-5-2.243-5-5s2.243-5 5-5 5 2.243 5 5-2.243 5-5 5z"/><path d="m61.553 47.658-9.317-4.658h-21.236v-8.261c0-3.8-2.704-7.1-6.431-7.845l-2.412-.482c-.794-.159-1.41-.775-1.569-1.569l-.443-2.215c.923-.682 1.671-1.583 2.17-2.628h.685c2.206 0 4-1.794 4-4 0-.901-.31-1.724-.815-2.393l.365-1.098c.299-.892.45-1.822.45-2.765 0-4.822-3.922-8.744-8.743-8.744h-2.651c-2.46 0-4.752 1.159-6.209 3.12l-.729.182c-2.16.54-3.668 2.472-3.668 4.698 0 1.609.565 3.587.871 4.538-.537.681-.871 1.529-.871 2.462 0 2.206 1.794 4 4 4h.685c.499 1.045 1.247 1.946 2.17 2.628l-.443 2.215c-.159.794-.775 1.411-1.569 1.569l-2.412.482c-3.727.745-6.431 4.044-6.431 7.845v10.261h5.703c.202.33.233.755.046 1.2-.204.493-.63.8-1.109.8h-2.64v6h2.64c.479 0 .905.307 1.127.843.211.501.128 1.025-.215 1.367l-1.868 1.858 4.247 4.248 1.859-1.867c.343-.343.866-.426 1.41-.198.493.205.8.63.8 1.11v2.639h6v-2.639c0-.48.307-.906.842-1.128.502-.21 1.024-.127 1.368.216l1.859 1.867 4.247-4.248-.068-.068h24.988l9.316-4.658c.893-.446 1.448-1.344 1.448-2.342s-.555-1.896-1.447-2.342zm-36.302 6.142c.204-.494.63-.8 1.109-.8h2.64v-2h22v4h-25.703c-.202-.33-.233-.755-.046-1.2zm.035-8.8h25.714v4h-22v-2h-2.64c-.479 0-.905-.307-1.127-.843-.178-.423-.137-.854.053-1.157zm27.714.618 4 2v4.764l-4 2zm-24-10.879v8.261h-1.578l-4.356-4.312-1.855 1.863c-.343.343-.867.425-1.41.198-.486-.201-.8-.637-.8-1.11v-1.423l4.332-9.53.845.169c2.794.559 4.822 3.034 4.822 5.884zm-13.279-3.739-.394-1.181.673-.538.673.538-.394 1.181zm2.726 3.6-.42-2.52.31-.93 1.231.985zm-4.784-3.45.31.93-.42 2.52-1.121-2.465zm2.184 1.85h.306l.667 4h-1.64zm5.486-4.748-.911 2.004-2.576-2.061 1.861-.93c.446.451 1.003.789 1.626.987zm1.667-10.252h-.08c.047-.328.08-.66.08-1v-3c1.103 0 2 .897 2 2s-.897 2-2 2zm-14 0c-1.103 0-2-.897-2-2s.897-2 2-2v3c0 .34.033.672.08 1zm.143-6h-.143c-.503 0-.979.104-1.423.274-.264-.92-.577-2.225-.577-3.274 0-1.307.886-2.44 2.152-2.757l1.465-.366.215-.322c1.066-1.6 2.851-2.555 4.773-2.555h2.651c3.719 0 6.744 3.025 6.744 6.744 0 .727-.116 1.444-.347 2.132l-.142.425c-.466-.191-.976-.301-1.511-.301h-.184c-.414-1.161-1.514-2-2.816-2h-4c-.552 0-1-.449-1-1s.448-1 1-1h1v-2h-1c-1.374 0-2.536.929-2.89 2.192l-.322.081c-1.855.463-3.23 1.926-3.645 3.727zm1.857 5v-3.877c0-1.374.928-2.567 2.258-2.906.468 1.05 1.52 1.783 2.742 1.783h4c.552 0 1 .449 1 1v4c0 2.757-2.243 5-5 5s-5-2.243-5-5zm5 7c.807 0 1.579-.144 2.301-.396l.326 1.632c.02.1.054.195.081.292l-2.708 1.354-2.708-1.354c.027-.097.061-.192.081-.292l.326-1.632c.722.252 1.494.396 2.301.396zm-3.706 3.265 1.861.93-2.576 2.061-.911-2.004c.622-.198 1.179-.536 1.626-.987zm-9.294 7.474c0-2.85 2.028-5.325 4.823-5.884l.845-.169 4.332 9.53v1.423c0 .473-.313.909-.842 1.128-.503.209-1.025.126-1.368-.216l-1.855-1.863-4.357 4.312h-1.578zm20.071 23.745-.445-.447c-.914-.917-2.311-1.171-3.592-.635-1.236.514-2.034 1.675-2.034 2.959v.639h-2v-.639c0-1.284-.798-2.445-2.068-2.972-1.247-.526-2.645-.27-3.558.648l-.445.447-1.413-1.413.446-.445c.919-.914 1.173-2.311.635-3.592-.513-1.235-1.673-2.034-2.957-2.034h-.64v-2h.64c1.284 0 2.444-.799 2.971-2.067.524-1.249.271-2.646-.701-3.609l-.436-.375 1.451-1.437.449.45c.915.919 2.315 1.172 3.592.634 1.235-.512 2.034-1.672 2.034-2.957v-.639h2v.639c0 1.285.799 2.445 2.068 2.972 1.247.524 2.645.269 3.558-.648l.449-.45 1.452 1.438-.489.423c-.919.914-1.173 2.311-.635 3.592.513 1.235 1.673 2.034 2.957 2.034h.64v2h-.64c-1.284 0-2.444.799-2.971 2.067-.524 1.249-.271 2.646.648 3.56l.446.444zm37.587-7.931-1.658.829v-2.764l1.658.829c.211.106.342.317.342.553s-.131.447-.342.553z"/><path d="m57 41h2v-32h4.868l-5.868-8.803-5.868 8.803h4.868zm1-37.197 2.132 3.197h-4.264z"/><path d="m47 41h2v-21h4.868l-5.868-8.803-5.868 8.803h4.868zm1-26.197 2.132 3.197h-4.264z"/><path d="m37 41h2v-10h4.868l-5.868-8.803-5.868 8.803h4.868zm1-15.197 2.132 3.197h-4.264z"/><path d="m29 9h2v2h-2z"/><path d="m33 9h2v2h-2z"/><path d="m37 9h2v2h-2z"/></g></g></svg>