<svg height="512" viewBox="0 0 64 64" width="512" xmlns="http://www.w3.org/2000/svg"><g id="Question-Answer-Faq_icon-Survey" data-name="Question-Answer-Faq icon-Survey"><path d="m15 23v24h38a2 2 0 0 0 2-2v-20a2 2 0 0 0 -2-2z" fill="#46f8ff"/><path d="m55 25v20a2.006 2.006 0 0 1 -2 2h-4a2.006 2.006 0 0 0 2-2v-20a2.006 2.006 0 0 0 -2-2h4a2.006 2.006 0 0 1 2 2z" fill="#00e7f0"/><path d="m62 59h-35v-12h26.85a2.015 2.015 0 0 1 1.73.99z" fill="#c6c5ca"/><path d="m62 59h-4l-6.42-11.01a2.015 2.015 0 0 0 -1.73-.99h4a2.015 2.015 0 0 1 1.73.99z" fill="#acabb1"/><rect fill="#bdfdff" height="16" rx="2" width="18" x="43" y="3"/><path d="m47 40v7h-12v-7a3.022 3.022 0 0 1 3-3h1l2 1 2-1h1a3.022 3.022 0 0 1 3 3z" fill="#ff3051"/><path d="m43.12 27.88a2.994 2.994 0 1 1 -2.12-.88 2.993 2.993 0 0 1 2.12.88z" fill="#ffc477"/><path d="m47 40v7h-4v-7a3.021 3.021 0 0 0 -1.21-2.4l1.21-.6h1a3.022 3.022 0 0 1 3 3z" fill="#cd2a00"/><path d="m44 30a3 3 0 0 1 -3 3 3.026 3.026 0 0 1 -1.5-.4 3.3 3.3 0 0 0 .62-.48 2.994 2.994 0 0 0 0-4.24 3.3 3.3 0 0 0 -.62-.48 3.026 3.026 0 0 1 1.5-.4 3 3 0 0 1 3 3z" fill="#ffa733"/><path d="m27 47v12a2.006 2.006 0 0 1 -2 2h-20a2.006 2.006 0 0 1 -2-2v-16a2.006 2.006 0 0 1 2-2h4l4 2h4l4-2h4a2.006 2.006 0 0 1 2 2z" fill="#91dc5a"/><path d="m21 27v6a4 4 0 0 1 -4 4h-4a4 4 0 0 1 -4-4v-6a4 4 0 0 1 4-4h4a4 4 0 0 1 4 4z" fill="#ffc477"/><path d="m27 43v16a2.006 2.006 0 0 1 -2 2h-4a2.006 2.006 0 0 0 2-2v-16a2.006 2.006 0 0 0 -2-2h4a2.006 2.006 0 0 1 2 2z" fill="#5eac24"/><path d="m21 27v6a4 4 0 0 1 -4 4h-4a4 4 0 0 0 4-4v-6a4 4 0 0 0 -4-4h4a4 4 0 0 1 4 4z" fill="#ffa733"/><rect fill="#bdfdff" height="16" rx="2" width="18" x="3" y="3"/><path d="m61 5v12a2.006 2.006 0 0 1 -2 2h-5a2.006 2.006 0 0 0 2-2v-12a2.006 2.006 0 0 0 -2-2h5a2.006 2.006 0 0 1 2 2z" fill="#00e7f0"/><path d="m21 5v12a2.006 2.006 0 0 1 -2 2h-5a2.006 2.006 0 0 0 2-2v-12a2.006 2.006 0 0 0 -2-2h5a2.006 2.006 0 0 1 2 2z" fill="#00e7f0"/><path d="m44 54h-8a1 1 0 0 0 0 2h8a1 1 0 0 0 0-2z"/><path d="m59 2h-14a3.009 3.009 0 0 0 -3 3v12a3.009 3.009 0 0 0 3 3h14a3.009 3.009 0 0 0 3-3v-12a3.009 3.009 0 0 0 -3-3zm1 15a1 1 0 0 1 -1 1h-14a1 1 0 0 1 -1-1v-12a1 1 0 0 1 1-1h14a1 1 0 0 1 1 1z"/><path d="m55.94 14.65-3-8a1 1 0 0 0 -1.88 0l-3 8a1 1 0 1 0 1.88.7l.5-1.35h3.12l.5 1.35a1.012 1.012 0 0 0 .94.65 1.03 1.03 0 0 0 .35-.06 1.007 1.007 0 0 0 .59-1.29zm-4.75-2.65.81-2.15.81 2.15z"/><path d="m19 2h-14a3.009 3.009 0 0 0 -3 3v12a3.009 3.009 0 0 0 3 3h14a3.009 3.009 0 0 0 3-3v-12a3.009 3.009 0 0 0 -3-3zm1 15a1 1 0 0 1 -1 1h-14a1 1 0 0 1 -1-1v-12a1 1 0 0 1 1-1h14a1 1 0 0 1 1 1z"/><path d="m41 34a4 4 0 1 0 -4-4 4 4 0 0 0 4 4zm0-6a2 2 0 1 1 -2 2 2 2 0 0 1 2-2z"/><path d="m62.86 58.5-6.42-11.01a2.932 2.932 0 0 0 -.89-.93 2.989 2.989 0 0 0 .45-1.56v-20a3.009 3.009 0 0 0 -3-3h-40a5 5 0 0 0 -5 5v6a5 5 0 0 0 5 5h4a5 5 0 0 0 5-5v-6a4.924 4.924 0 0 0 -1.03-3h32.03a1 1 0 0 1 1 1v20a1 1 0 0 1 -1 1h-5v-6a4 4 0 0 0 -4-4h-1a1 1 0 0 0 -.45.11l-1.55.77-1.55-.77a1 1 0 0 0 -.45-.11h-1a4 4 0 0 0 -4 4v6h-6v-3a3.009 3.009 0 0 0 -3-3h-4a1 1 0 0 0 -.45.11l-3.79 1.89h-3.52l-3.79-1.89a1 1 0 0 0 -.45-.11h-4a3.009 3.009 0 0 0 -3 3v16a3.009 3.009 0 0 0 3 3h20a3.01 3.01 0 0 0 2.82-2h34.18a.991.991 0 0 0 .86-1.5zm-42.86-25.5a3.009 3.009 0 0 1 -3 3h-4a3.009 3.009 0 0 1 -3-3v-6a3.009 3.009 0 0 1 3-3h4a3.009 3.009 0 0 1 3 3zm6 26a1 1 0 0 1 -1 1h-20a1 1 0 0 1 -1-1v-16a1 1 0 0 1 1-1h3.76l3.79 1.89a1 1 0 0 0 .45.11h4a1 1 0 0 0 .45-.11l3.79-1.89h3.76a1 1 0 0 1 1 1zm10-19a2.032 2.032 0 0 1 2-2h.76l1.79.89a.956.956 0 0 0 .9 0l1.79-.89h.76a2.032 2.032 0 0 1 2 2v6h-10zm-8 18v-10h25.85a.976.976 0 0 1 .86.5l5.55 9.5z"/><path d="m16.71 14.29-.76-.76a3.072 3.072 0 0 0 .05-.53v-4a3.009 3.009 0 0 0 -3-3h-2a3.009 3.009 0 0 0 -3 3v4a3.009 3.009 0 0 0 3 3h2a2.979 2.979 0 0 0 1.89-.69l.4.4a1.014 1.014 0 0 0 1.42 0 1.008 1.008 0 0 0 0-1.42zm-2.71-2.7-.29-.3a1 1 0 0 0 -1.42 1.42l1.17 1.16a.91.91 0 0 1 -.46.13h-2a1 1 0 0 1 -1-1v-4a1 1 0 0 1 1-1h2a1 1 0 0 1 1 1z"/></g></svg>